<svg id="visual" viewBox="0 0 900 600" width="900" height="600" xmlns="http://www.w3.org/2000/svg" xmlns:xlink="http://www.w3.org/1999/xlink" version="1.1"><path d="M0 91L13.7 86C27.3 81 54.7 71 82 64C109.3 57 136.7 53 163.8 49C191 45 218 41 245.2 45C272.3 49 299.7 61 327 68C354.3 75 381.7 77 409 82C436.3 87 463.7 95 491 88C518.3 81 545.7 59 573 52C600.3 45 627.7 53 654.8 53C682 53 709 45 736.2 48C763.3 51 790.7 65 818 68C845.3 71 872.7 63 886.3 59L900 55L900 0L886.3 0C872.7 0 845.3 0 818 0C790.7 0 763.3 0 736.2 0C709 0 682 0 654.8 0C627.7 0 600.3 0 573 0C545.7 0 518.3 0 491 0C463.7 0 436.3 0 409 0C381.7 0 354.3 0 327 0C299.7 0 272.3 0 245.2 0C218 0 191 0 163.8 0C136.7 0 109.3 0 82 0C54.7 0 27.3 0 13.7 0L0 0Z" fill="#6198ff"></path><path d="M0 181L13.7 185C27.3 189 54.7 197 82 215C109.3 233 136.7 261 163.8 264C191 267 218 245 245.2 237C272.3 229 299.7 235 327 237C354.3 239 381.7 237 409 229C436.3 221 463.7 207 491 200C518.3 193 545.7 193 573 204C600.3 215 627.7 237 654.8 243C682 249 709 239 736.2 235C763.3 231 790.7 233 818 246C845.3 259 872.7 283 886.3 295L900 307L900 53L886.3 57C872.7 61 845.3 69 818 66C790.7 63 763.3 49 736.2 46C709 43 682 51 654.8 51C627.7 51 600.3 43 573 50C545.7 57 518.3 79 491 86C463.7 93 436.3 85 409 80C381.7 75 354.3 73 327 66C299.7 59 272.3 47 245.2 43C218 39 191 43 163.8 47C136.7 51 109.3 55 82 62C54.7 69 27.3 79 13.7 84L0 89Z" fill="#3c80ff"></path><path d="M0 403L13.7 395C27.3 387 54.7 371 82 370C109.3 369 136.7 383 163.8 394C191 405 218 413 245.2 419C272.3 425 299.7 429 327 432C354.3 435 381.7 437 409 436C436.3 435 463.7 431 491 435C518.3 439 545.7 451 573 440C600.3 429 627.7 395 654.8 386C682 377 709 393 736.2 403C763.3 413 790.7 417 818 421C845.3 425 872.7 429 886.3 431L900 433L900 305L886.3 293C872.7 281 845.3 257 818 244C790.7 231 763.3 229 736.2 233C709 237 682 247 654.8 241C627.7 235 600.3 213 573 202C545.7 191 518.3 191 491 198C463.7 205 436.3 219 409 227C381.7 235 354.3 237 327 235C299.7 233 272.3 227 245.2 235C218 243 191 265 163.8 262C136.7 259 109.3 231 82 213C54.7 195 27.3 187 13.7 183L0 179Z" fill="#0066ff"></path><path d="M0 493L13.7 490C27.3 487 54.7 481 82 484C109.3 487 136.7 499 163.8 502C191 505 218 499 245.2 500C272.3 501 299.7 509 327 518C354.3 527 381.7 537 409 535C436.3 533 463.7 519 491 514C518.3 509 545.7 513 573 502C600.3 491 627.7 465 654.8 461C682 457 709 475 736.2 491C763.3 507 790.7 521 818 527C845.3 533 872.7 531 886.3 530L900 529L900 431L886.3 429C872.7 427 845.3 423 818 419C790.7 415 763.3 411 736.2 401C709 391 682 375 654.8 384C627.7 393 600.3 427 573 438C545.7 449 518.3 437 491 433C463.7 429 436.3 433 409 434C381.7 435 354.3 433 327 430C299.7 427 272.3 423 245.2 417C218 411 191 403 163.8 392C136.7 381 109.3 367 82 368C54.7 369 27.3 385 13.7 393L0 401Z" fill="#0059dd"></path><path d="M0 601L13.7 601C27.3 601 54.7 601 82 601C109.3 601 136.7 601 163.8 601C191 601 218 601 245.2 601C272.3 601 299.7 601 327 601C354.3 601 381.7 601 409 601C436.3 601 463.7 601 491 601C518.3 601 545.7 601 573 601C600.3 601 627.7 601 654.8 601C682 601 709 601 736.2 601C763.3 601 790.7 601 818 601C845.3 601 872.7 601 886.3 601L900 601L900 527L886.3 528C872.7 529 845.3 531 818 525C790.7 519 763.3 505 736.2 489C709 473 682 455 654.8 459C627.7 463 600.3 489 573 500C545.7 511 518.3 507 491 512C463.7 517 436.3 531 409 533C381.7 535 354.3 525 327 516C299.7 507 272.3 499 245.2 498C218 497 191 503 163.8 500C136.7 497 109.3 485 82 482C54.7 479 27.3 485 13.7 488L0 491Z" fill="#004cbb"></path></svg>